<mxfile host="Electron" agent="Mozilla/5.0 (Macintosh; Intel Mac OS X 10_15_7) AppleWebKit/537.36 (KHTML, like Gecko) draw.io/26.0.4 Chrome/128.0.6613.186 Electron/32.2.5 Safari/537.36" version="26.0.4">
  <diagram name="Page-1" id="8hqDkVTduFN6-MCOO9W7">
    <mxGraphModel dx="1721" dy="999" grid="0" gridSize="10" guides="1" tooltips="1" connect="1" arrows="1" fold="1" page="0" pageScale="1" pageWidth="850" pageHeight="1100" math="0" shadow="0">
      <root>
        <mxCell id="0" />
        <mxCell id="1" parent="0" />
        <mxCell id="x72I84GHoZOAsvrOj594-38" value="" style="rounded=0;whiteSpace=wrap;html=1;fontFamily=Helvetica;fontSize=11;fontColor=default;labelBackgroundColor=default;fillColor=none;" parent="1" vertex="1">
          <mxGeometry x="796" y="261" width="546" height="473" as="geometry" />
        </mxCell>
        <mxCell id="x72I84GHoZOAsvrOj594-33" value="" style="rounded=0;whiteSpace=wrap;html=1;fontFamily=Helvetica;fontSize=11;fontColor=default;labelBackgroundColor=default;fillColor=none;" parent="1" vertex="1">
          <mxGeometry x="-137" y="261" width="336" height="473" as="geometry" />
        </mxCell>
        <mxCell id="x72I84GHoZOAsvrOj594-36" value="" style="rounded=0;whiteSpace=wrap;html=1;fontFamily=Helvetica;fontSize=11;fontColor=default;labelBackgroundColor=default;fillColor=none;" parent="1" vertex="1">
          <mxGeometry x="227" y="261" width="546" height="473" as="geometry" />
        </mxCell>
        <mxCell id="x72I84GHoZOAsvrOj594-1" value="&lt;b&gt;command&lt;/b&gt;&lt;div&gt;&lt;br&gt;&lt;div&gt;data&lt;/div&gt;&lt;/div&gt;" style="rounded=0;whiteSpace=wrap;html=1;fillColor=#dae8fc;strokeColor=#6c8ebf;" parent="1" vertex="1">
          <mxGeometry x="-66" y="45" width="120" height="60" as="geometry" />
        </mxCell>
        <mxCell id="x72I84GHoZOAsvrOj594-2" value="&lt;b&gt;event&lt;/b&gt;&lt;div&gt;&lt;br&gt;&lt;div&gt;data&lt;/div&gt;&lt;/div&gt;" style="rounded=0;whiteSpace=wrap;html=1;fillColor=#ffe6cc;strokeColor=#d79b00;" parent="1" vertex="1">
          <mxGeometry x="69" y="45" width="120" height="60" as="geometry" />
        </mxCell>
        <mxCell id="x72I84GHoZOAsvrOj594-3" value="&lt;b&gt;view&lt;/b&gt;&lt;div&gt;&lt;br&gt;&lt;div&gt;data&lt;/div&gt;&lt;/div&gt;" style="rounded=0;whiteSpace=wrap;html=1;fillColor=#d5e8d4;strokeColor=#82b366;" parent="1" vertex="1">
          <mxGeometry x="209" y="45" width="120" height="60" as="geometry" />
        </mxCell>
        <mxCell id="x72I84GHoZOAsvrOj594-10" style="edgeStyle=orthogonalEdgeStyle;rounded=0;orthogonalLoop=1;jettySize=auto;html=1;entryX=0;entryY=0.5;entryDx=0;entryDy=0;curved=1;exitX=0.5;exitY=1;exitDx=0;exitDy=0;" parent="1" source="x72I84GHoZOAsvrOj594-4" target="x72I84GHoZOAsvrOj594-8" edge="1">
          <mxGeometry relative="1" as="geometry" />
        </mxCell>
        <mxCell id="x72I84GHoZOAsvrOj594-4" value="&lt;b&gt;add car&lt;/b&gt;&lt;div&gt;&lt;br&gt;&lt;div&gt;make: str&lt;/div&gt;&lt;/div&gt;&lt;div&gt;model: str&lt;/div&gt;plate: str&lt;div&gt;vin: str&lt;/div&gt;&lt;div&gt;year: int&lt;/div&gt;" style="rounded=0;whiteSpace=wrap;html=1;fillColor=#dae8fc;strokeColor=#6c8ebf;" parent="1" vertex="1">
          <mxGeometry x="-108" y="296" width="120" height="116" as="geometry" />
        </mxCell>
        <mxCell id="x72I84GHoZOAsvrOj594-13" style="edgeStyle=orthogonalEdgeStyle;rounded=0;orthogonalLoop=1;jettySize=auto;html=1;entryX=0.5;entryY=1;entryDx=0;entryDy=0;curved=1;" parent="1" source="x72I84GHoZOAsvrOj594-8" target="x72I84GHoZOAsvrOj594-12" edge="1">
          <mxGeometry relative="1" as="geometry" />
        </mxCell>
        <mxCell id="x72I84GHoZOAsvrOj594-8" value="&lt;b&gt;CarAdded&lt;/b&gt;&lt;div&gt;&lt;br&gt;&lt;div&gt;make: str&lt;/div&gt;&lt;/div&gt;&lt;div&gt;model: str&lt;/div&gt;&lt;div&gt;plate: str&lt;/div&gt;&lt;div&gt;vin: str&lt;/div&gt;&lt;div&gt;&lt;span style=&quot;background-color: initial;&quot;&gt;year: int&lt;/span&gt;&lt;/div&gt;" style="rounded=0;whiteSpace=wrap;html=1;fillColor=#ffe6cc;strokeColor=#d79b00;" parent="1" vertex="1">
          <mxGeometry x="54" y="475" width="120" height="133" as="geometry" />
        </mxCell>
        <mxCell id="x72I84GHoZOAsvrOj594-15" style="edgeStyle=orthogonalEdgeStyle;shape=connector;curved=1;rounded=0;orthogonalLoop=1;jettySize=auto;html=1;strokeColor=default;align=center;verticalAlign=middle;fontFamily=Helvetica;fontSize=11;fontColor=default;labelBackgroundColor=default;endArrow=classic;exitX=0.5;exitY=0;exitDx=0;exitDy=0;" parent="1" edge="1">
          <mxGeometry relative="1" as="geometry">
            <mxPoint x="409" y="201" as="targetPoint" />
            <mxPoint x="310" y="302" as="sourcePoint" />
            <Array as="points">
              <mxPoint x="310" y="201" />
            </Array>
          </mxGeometry>
        </mxCell>
        <mxCell id="x72I84GHoZOAsvrOj594-12" value="&lt;b&gt;awaiting history&lt;/b&gt;&lt;br&gt;&lt;div&gt;&lt;br&gt;&lt;div&gt;make: str&lt;/div&gt;&lt;/div&gt;&lt;div&gt;model: str&lt;/div&gt;&lt;div&gt;vin: str&lt;/div&gt;&lt;div&gt;plate: str&lt;/div&gt;" style="rounded=0;whiteSpace=wrap;html=1;fillColor=#d5e8d4;strokeColor=#82b366;" parent="1" vertex="1">
          <mxGeometry x="250" y="296" width="120" height="105" as="geometry" />
        </mxCell>
        <mxCell id="x72I84GHoZOAsvrOj594-17" style="edgeStyle=orthogonalEdgeStyle;shape=connector;curved=1;rounded=0;orthogonalLoop=1;jettySize=auto;html=1;entryX=0.5;entryY=0;entryDx=0;entryDy=0;strokeColor=default;align=center;verticalAlign=middle;fontFamily=Helvetica;fontSize=11;fontColor=default;labelBackgroundColor=default;endArrow=classic;" parent="1" source="x72I84GHoZOAsvrOj594-14" target="x72I84GHoZOAsvrOj594-16" edge="1">
          <mxGeometry relative="1" as="geometry" />
        </mxCell>
        <mxCell id="x72I84GHoZOAsvrOj594-14" value="" style="sketch=0;outlineConnect=0;fontColor=#232F3E;gradientColor=none;fillColor=#232F3D;strokeColor=none;dashed=0;verticalLabelPosition=bottom;verticalAlign=top;align=center;html=1;fontSize=12;fontStyle=0;aspect=fixed;pointerEvents=1;shape=mxgraph.aws4.gear;fontFamily=Helvetica;labelBackgroundColor=default;" parent="1" vertex="1">
          <mxGeometry x="409" y="162" width="78" height="78" as="geometry" />
        </mxCell>
        <mxCell id="x72I84GHoZOAsvrOj594-19" style="edgeStyle=orthogonalEdgeStyle;shape=connector;curved=1;rounded=0;orthogonalLoop=1;jettySize=auto;html=1;entryX=0;entryY=0.5;entryDx=0;entryDy=0;strokeColor=default;align=center;verticalAlign=middle;fontFamily=Helvetica;fontSize=11;fontColor=default;labelBackgroundColor=default;endArrow=classic;exitX=0.5;exitY=1;exitDx=0;exitDy=0;" parent="1" source="x72I84GHoZOAsvrOj594-16" target="x72I84GHoZOAsvrOj594-18" edge="1">
          <mxGeometry relative="1" as="geometry" />
        </mxCell>
        <mxCell id="x72I84GHoZOAsvrOj594-16" value="&lt;b&gt;add history&lt;/b&gt;&lt;div&gt;&lt;br&gt;&lt;div&gt;car_id: str&lt;/div&gt;&lt;/div&gt;&lt;div&gt;log: list[Entry]&lt;/div&gt;" style="rounded=0;whiteSpace=wrap;html=1;fillColor=#dae8fc;strokeColor=#6c8ebf;" parent="1" vertex="1">
          <mxGeometry x="511" y="296" width="120" height="105" as="geometry" />
        </mxCell>
        <mxCell id="x72I84GHoZOAsvrOj594-23" style="edgeStyle=orthogonalEdgeStyle;shape=connector;curved=1;rounded=0;orthogonalLoop=1;jettySize=auto;html=1;entryX=0.5;entryY=1;entryDx=0;entryDy=0;strokeColor=default;align=center;verticalAlign=middle;fontFamily=Helvetica;fontSize=11;fontColor=default;labelBackgroundColor=default;endArrow=classic;" parent="1" source="x72I84GHoZOAsvrOj594-18" target="x72I84GHoZOAsvrOj594-22" edge="1">
          <mxGeometry relative="1" as="geometry" />
        </mxCell>
        <mxCell id="rOBBYURLdB9VB552K1Y6-1" style="edgeStyle=orthogonalEdgeStyle;rounded=0;orthogonalLoop=1;jettySize=auto;html=1;entryX=0.5;entryY=1;entryDx=0;entryDy=0;curved=1;dashed=1;dashPattern=8 8;" edge="1" parent="1" source="x72I84GHoZOAsvrOj594-18" target="x72I84GHoZOAsvrOj594-12">
          <mxGeometry relative="1" as="geometry" />
        </mxCell>
        <mxCell id="x72I84GHoZOAsvrOj594-18" value="&lt;b&gt;HistoryAdded&lt;/b&gt;&lt;div&gt;&lt;br&gt;&lt;div&gt;log: list[Entry]&lt;/div&gt;&lt;/div&gt;" style="rounded=0;whiteSpace=wrap;html=1;fillColor=#ffe6cc;strokeColor=#d79b00;" parent="1" vertex="1">
          <mxGeometry x="640" y="475" width="120" height="105" as="geometry" />
        </mxCell>
        <mxCell id="x72I84GHoZOAsvrOj594-21" style="edgeStyle=orthogonalEdgeStyle;shape=connector;curved=1;rounded=0;orthogonalLoop=1;jettySize=auto;html=1;entryX=0.5;entryY=0;entryDx=0;entryDy=0;strokeColor=default;align=center;verticalAlign=middle;fontFamily=Helvetica;fontSize=11;fontColor=default;labelBackgroundColor=default;endArrow=classic;" parent="1" source="x72I84GHoZOAsvrOj594-20" target="x72I84GHoZOAsvrOj594-4" edge="1">
          <mxGeometry relative="1" as="geometry" />
        </mxCell>
        <mxCell id="x72I84GHoZOAsvrOj594-20" value="POST /car" style="rounded=0;whiteSpace=wrap;html=1;fontFamily=Helvetica;fontSize=11;fontColor=default;labelBackgroundColor=default;" parent="1" vertex="1">
          <mxGeometry x="-108" y="162" width="120" height="60" as="geometry" />
        </mxCell>
        <mxCell id="x72I84GHoZOAsvrOj594-29" style="edgeStyle=orthogonalEdgeStyle;shape=connector;curved=1;rounded=0;orthogonalLoop=1;jettySize=auto;html=1;strokeColor=default;align=center;verticalAlign=middle;fontFamily=Helvetica;fontSize=11;fontColor=default;labelBackgroundColor=default;endArrow=classic;" parent="1" source="x72I84GHoZOAsvrOj594-22" target="x72I84GHoZOAsvrOj594-24" edge="1">
          <mxGeometry relative="1" as="geometry">
            <mxPoint x="869" y="194.79487179487182" as="targetPoint" />
            <Array as="points">
              <mxPoint x="869" y="201" />
            </Array>
          </mxGeometry>
        </mxCell>
        <mxCell id="x72I84GHoZOAsvrOj594-22" value="&lt;b&gt;awaiting estimate&lt;/b&gt;&lt;br&gt;&lt;div&gt;&lt;br&gt;&lt;div&gt;car_id: UUID&lt;/div&gt;&lt;/div&gt;" style="rounded=0;whiteSpace=wrap;html=1;fillColor=#d5e8d4;strokeColor=#82b366;" parent="1" vertex="1">
          <mxGeometry x="805" y="296" width="128" height="126" as="geometry" />
        </mxCell>
        <mxCell id="x72I84GHoZOAsvrOj594-30" style="edgeStyle=orthogonalEdgeStyle;shape=connector;curved=1;rounded=0;orthogonalLoop=1;jettySize=auto;html=1;entryX=0.5;entryY=0;entryDx=0;entryDy=0;strokeColor=default;align=center;verticalAlign=middle;fontFamily=Helvetica;fontSize=11;fontColor=default;labelBackgroundColor=default;endArrow=classic;" parent="1" source="x72I84GHoZOAsvrOj594-24" target="x72I84GHoZOAsvrOj594-25" edge="1">
          <mxGeometry relative="1" as="geometry" />
        </mxCell>
        <mxCell id="x72I84GHoZOAsvrOj594-24" value="" style="sketch=0;outlineConnect=0;fontColor=#232F3E;gradientColor=none;fillColor=#232F3D;strokeColor=none;dashed=0;verticalLabelPosition=bottom;verticalAlign=top;align=center;html=1;fontSize=12;fontStyle=0;aspect=fixed;pointerEvents=1;shape=mxgraph.aws4.gear;fontFamily=Helvetica;labelBackgroundColor=default;" parent="1" vertex="1">
          <mxGeometry x="993" y="162" width="78" height="78" as="geometry" />
        </mxCell>
        <mxCell id="x72I84GHoZOAsvrOj594-25" value="&lt;b&gt;add estimate&lt;/b&gt;&lt;div&gt;&lt;br&gt;&lt;div&gt;car_id: str&lt;/div&gt;&lt;/div&gt;&lt;div&gt;estimate: Decimal&lt;/div&gt;" style="rounded=0;whiteSpace=wrap;html=1;fillColor=#dae8fc;strokeColor=#6c8ebf;" parent="1" vertex="1">
          <mxGeometry x="1094" y="296" width="120" height="105" as="geometry" />
        </mxCell>
        <mxCell id="x72I84GHoZOAsvrOj594-31" value="&lt;div&gt;&lt;b&gt;EstimateAdded&lt;/b&gt;&lt;br&gt;&lt;div&gt;estimate: Decimal&lt;/div&gt;&lt;/div&gt;" style="rounded=0;whiteSpace=wrap;html=1;fillColor=#ffe6cc;strokeColor=#d79b00;" parent="1" vertex="1">
          <mxGeometry x="1198" y="475" width="120" height="105" as="geometry" />
        </mxCell>
        <mxCell id="x72I84GHoZOAsvrOj594-32" style="edgeStyle=orthogonalEdgeStyle;shape=connector;curved=1;rounded=0;orthogonalLoop=1;jettySize=auto;html=1;entryX=0.008;entryY=0.557;entryDx=0;entryDy=0;entryPerimeter=0;strokeColor=default;align=center;verticalAlign=middle;fontFamily=Helvetica;fontSize=11;fontColor=default;labelBackgroundColor=default;endArrow=classic;" parent="1" source="x72I84GHoZOAsvrOj594-25" target="x72I84GHoZOAsvrOj594-31" edge="1">
          <mxGeometry relative="1" as="geometry" />
        </mxCell>
        <mxCell id="x72I84GHoZOAsvrOj594-34" value="slice: add_car" style="text;html=1;align=left;verticalAlign=middle;resizable=0;points=[];autosize=1;strokeColor=none;fillColor=none;fontFamily=Helvetica;fontSize=11;fontColor=default;labelBackgroundColor=default;" parent="1" vertex="1">
          <mxGeometry x="-137" y="236" width="86" height="25" as="geometry" />
        </mxCell>
        <mxCell id="x72I84GHoZOAsvrOj594-35" value="slice: add_history" style="text;html=1;align=left;verticalAlign=middle;resizable=0;points=[];autosize=1;strokeColor=none;fillColor=none;fontFamily=Helvetica;fontSize=11;fontColor=default;labelBackgroundColor=default;" parent="1" vertex="1">
          <mxGeometry x="226" y="236" width="103" height="25" as="geometry" />
        </mxCell>
        <mxCell id="x72I84GHoZOAsvrOj594-37" value="slice: add_estimate" style="text;html=1;align=left;verticalAlign=middle;resizable=0;points=[];autosize=1;strokeColor=none;fillColor=none;fontFamily=Helvetica;fontSize=11;fontColor=default;labelBackgroundColor=default;" parent="1" vertex="1">
          <mxGeometry x="795" y="236" width="112" height="25" as="geometry" />
        </mxCell>
      </root>
    </mxGraphModel>
  </diagram>
</mxfile>
